<svg xmlns="http://www.w3.org/2000/svg" fill="none" viewBox="0 0 1000 1000" id="Welcome--Streamline-New-York.svg" height="1000" width="1000"><desc>Welcome Streamline Illustration: https://streamlinehq.com</desc><path fill="#000000" d="M859.8199999999999 914.73c-48.365 -29.365000000000002 -121.455 -25.875 -172.225 0a2 2 0 0 0 1 3.65c177.855 2.355 170.42000000000002 0.08 170.92 -0.135a2.015 2.015 0 0 0 0.305 -3.5149999999999997Z" stroke-width="1"></path><path fill="#000000" d="M781.5600000000001 391.345a35.83 35.83 0 0 0 -19.29 -14.755c4.115 -21.435 -6.295 -44.465 -28.78 -45.5a22.71 22.71 0 0 0 -12 2.8249999999999997 26 26 0 0 0 -29.394999999999996 -19.34 62.33 62.33 0 0 0 -38.165 24.24c-0.38 0.5 -0.81 1 -1.1700000000000002 1.55a32.085 32.085 0 0 0 -5.709999999999999 21.6c-31.12 2.595 -51.6 38.5 -32.77 78.85a22.46 22.46 0 0 0 -20.275 9.965 32.18 32.18 0 0 0 -1.3250000000000002 27.360000000000003 171.42 171.42 0 0 1 71.64 -45.72c37.085 -12.58 54.5 -8.465 82.30000000000001 -9.215 14.5 -0.4 29.5 -2.07 41.125 -10.805a33.45 33.45 0 0 0 -6.1850000000000005 -21.055Zm-89.095 20.125a18.805 18.805 0 0 1 -23.62 -18.35 18.82 18.82 0 0 1 12.635000000000002 -17.575 18.79 18.79 0 0 1 24.915 16.55 18.77 18.77 0 0 1 -13.93 19.375Z" stroke-width="1"></path><path fill="#000000" d="M469.09 793c-1.225 -5.5 -27.69 -118.5 -29.765 -127.92500000000001a205.51500000000001 205.51500000000001 0 0 0 -9.5 -31.43 55.61 55.61 0 0 0 -18.255 -24.075000000000003c-28.955000000000002 -19.15 -76.665 3.9400000000000004 -78 75.75999999999999 32.455 -8.035 60.919999999999995 0.165 81.55 19.45 23.650000000000002 22.105 34.910000000000004 57.97 35.769999999999996 86.78 0.045 1.56 0.28500000000000003 2.6 -0.47 3.3000000000000003a2.02 2.02 0 0 1 -1.42 0.62c6.07 0.31 12.15 0.31 18.22 0a1.955 1.955 0 0 0 1.525 -0.795 1.965 1.965 0 0 0 0.34500000000000003 -1.685Zm-77.87 -129.87a18.799999999999997 18.799999999999997 0 0 1 -22.134999999999998 -1.96 18.765 18.765 0 0 1 -4.79 -21.695 18.779999999999998 18.779999999999998 0 0 1 29.900000000000002 -6.26 18.799999999999997 18.799999999999997 0 0 1 -2.9749999999999996 29.915Z" stroke-width="1"></path><path fill="#000000" d="M212.76 146.285a9.65 9.65 0 0 0 -9.655000000000001 4.205 7.115 7.115 0 0 0 -7.9 -5.300000000000001 11.434999999999999 11.434999999999999 0 0 0 -8.82 8.72A5.585 5.585 0 0 0 180 152.73a9.955 9.955 0 0 0 -4.955 7.95 37.09 37.09 0 0 0 3.22 17.915 1.9 1.9 0 0 0 2.6750000000000003 0.705c13.245000000000001 -5.61 17.29 -5.0249999999999995 26.385 -11.959999999999999a30.115 30.115 0 0 0 9.709999999999999 -10.72 6.959999999999999 6.959999999999999 0 0 0 -4.275 -10.335Z" stroke-width="1"></path><path fill="#000000" d="M282.28999999999996 106.41c0.555 -2.455 -3.22 -3.5 -3.775 -1.04a33.214999999999996 33.214999999999996 0 0 0 6 24.23c1.18 1.6 2.17 3.335 2.94 5.17 0.68 2.2 -1.2149999999999999 2.765 -2.745 3.875a27.669999999999998 27.669999999999998 0 0 0 -7.95 8.8 1.96 1.96 0 0 0 3.3850000000000002 1.975c2.065 -3.4499999999999997 4.9 -6.37 8.275 -8.55a6 6 0 0 0 3.12 -4.5 9.5 9.5 0 0 0 -1.58 -5.415c-4.36 -7.53 -9.74 -15.4 -7.67 -24.55Z" stroke-width="1"></path><path fill="#000000" d="M39.6 378.68499999999995c0.47 -2.465 -3.3000000000000003 -3.5 -3.7800000000000002 -1.045a42.76 42.76 0 0 0 0.715 20.085 1.96 1.96 0 0 0 3.775 -1.04 41.224999999999994 41.224999999999994 0 0 1 -0.71 -18Z" stroke-width="1"></path><path fill="#000000" d="M150.13 744.86a1.985 1.985 0 0 0 1.1949999999999998 0.905c0.5 0.13 1.035 0.05499999999999999 1.4849999999999999 -0.20500000000000002 3.085 -1.8399999999999999 -1.58 -2.2 -14.74 -47.85a1.9500000000000002 1.9500000000000002 0 0 0 -3.55 -0.405 1.96 1.96 0 0 0 -0.22499999999999998 1.45 312.4 312.4 0 0 0 15.834999999999999 46.105000000000004Z" stroke-width="1"></path><path fill="#000000" d="M146.935 751.87a198.14499999999998 198.14499999999998 0 0 1 -22.75 -60.685c-0.46499999999999997 -2.5 -4.24 -1.4249999999999998 -3.775 1.04a182.7 182.7 0 0 0 23.144999999999996 61.62 1.955 1.955 0 0 0 2.6900000000000004 0.6900000000000001 1.9700000000000002 1.9700000000000002 0 0 0 0.6900000000000001 -2.6900000000000004v0.025Z" stroke-width="1"></path><path fill="#000000" d="M428.375 104.815a739.1500000000001 739.1500000000001 0 0 0 12.649999999999999 -21.355 1.96 1.96 0 0 0 -3.3850000000000002 -1.975L425 102.83500000000001a1.965 1.965 0 0 0 3.3800000000000003 2l-0.005 -0.02Z" stroke-width="1"></path><path fill="#000000" d="m438.095 118.38 29.695 -23.5c1.975 -1.565 -0.81 -4.32 -2.7700000000000005 -2.7700000000000005l-29.695 23.5c-1.975 1.565 0.8150000000000001 4.32 2.7700000000000005 2.7700000000000005Z" stroke-width="1"></path><path fill="#000000" d="m448.12 131.925 26.12 -9.765c2.3400000000000003 -0.8699999999999999 1.3250000000000002 -4.66 -1.04 -3.775l-26.12 9.76c-2.3400000000000003 0.8550000000000001 -1.3250000000000002 4.66 1.04 3.7800000000000002Z" stroke-width="1"></path><path fill="#000000" d="M944.315 447.65999999999997a92.65 92.65 0 0 0 9.685 -55.875c-0.34500000000000003 -2.5 -4.115 -1.43 -3.775 1.04a87.92999999999999 87.92999999999999 0 0 1 -9.280000000000001 52.85c-1.185 2.235 2.195 4.22 3.37 1.985Z" stroke-width="1"></path><path fill="#000000" d="M960.3199999999999 460.5a93.10000000000001 93.10000000000001 0 0 0 12.535 -69.88000000000001c-0.53 -2.46 -4.3 -1.42 -3.775 1.04a89.555 89.555 0 0 1 -12.14 66.865c-1.36 2.145 2.0250000000000004 4.109999999999999 3.3800000000000003 1.975Z" stroke-width="1"></path><path fill="#000000" d="M206 456.83c-0.535 -9.925 -1.155 -20.5 -9.3 -27.555 -1.5 -1.4149999999999998 -3.325 -2.45 -5.3100000000000005 -3 -7.5 -2.23 -19.21 1.7199999999999998 -22.39 1.7799999999999998 -20.125 0.365 -35.35 -22.725 -37.26 -42.565 -0.24 -2.535 -4.109999999999999 -2.41 -3.915 0 1.635 20.19 16.5 43.66 37.265 46.295a35.12 35.12 0 0 0 13.22 -1.4449999999999998 31.375 31.375 0 0 1 11.73 -0.44499999999999995 15.35 15.35 0 0 1 8.86 8.81c1.625 3.8600000000000003 2.575 7.970000000000001 2.82 12.155000000000001 0.44999999999999996 5.81 1.675 16.46 -3.8200000000000003 18.605 -2.55 1 -4.415 -1.73 -5.725 -4.125a57.629999999999995 57.629999999999995 0 0 1 -5.034999999999999 -11 1.96 1.96 0 1 0 -3.7800000000000002 1.045 30.93 30.93 0 0 1 0 15.16c-0.915 2.905 -3.5 7.2250000000000005 -7.17 5.57 -3.5749999999999997 -1.615 -4.31 -6.74 -5.41 -10a12.725 12.725 0 0 0 -7.279999999999999 -8.895c-1.545 -0.545 -2.63 1.065 -2.405 2.405 1.2349999999999999 7.4350000000000005 1.835 26.084999999999997 -5.205 28.655a3 3 0 0 1 -2.5 -0.12c-3.685 -2.085 -4.069999999999999 -8.725000000000001 -6.870000000000001 -13.08 -3.825 -5.949999999999999 -8.764999999999999 -3.5 -15.03 -0.61a253.05 253.05 0 0 0 -27.285 15.295000000000002c-2.12 1.5 0 4.81 1.975 3.3850000000000002 5.470000000000001 -3.91 29.79 -18.105 35 -17.845 4.24 2.8649999999999998 3.96 9.24 7.4350000000000005 13.865a7.54 7.54 0 0 0 10.275 1.955c0.26 -0.17 0.43999999999999995 -0.42000000000000004 0.68 -0.61a21.47 21.47 0 0 0 5.9350000000000005 -15.475000000000001c0.235 -3.795 0.235 -7.6 0 -11.395 1.3 2.7700000000000005 2.3499999999999996 5.655 3.12 8.62 5.3100000000000005 13.540000000000001 18.23 9.34 19.5 -6.109999999999999 0.38 0.6950000000000001 0.78 1.4000000000000001 1.21 2.11 3.5749999999999997 5.9350000000000005 7.86 6.535 11 4.375 5.295 -3.67 6.01 -9.365 5.665 -15.809999999999999Z" stroke-width="1"></path><g><path fill="#000000" d="M197.93 182.18a17.66 17.66 0 0 0 -17.775000000000002 5.32 17.1 17.1 0 0 0 -3.87 12.575000000000001 26.549999999999997 26.549999999999997 0 0 0 3.785 12.68 14.7 14.7 0 0 0 12.31 5.5649999999999995c14.604999999999999 0 24.5 -13.360000000000001 20.575000000000003 -24.5a17.965 17.965 0 0 0 -15.024999999999999 -11.639999999999999Zm9.245 22.32a16.23 16.23 0 0 1 -14.175 8.61 9.86 9.86 0 0 1 -8.5 -3 20.5 20.5 0 0 1 -2.8699999999999997 -8.41 11.6 11.6 0 0 1 11.34 -14.815000000000001c12.935 -0.015 18.474999999999998 9.045 14.205000000000002 17.615000000000002Z" stroke-width="1"></path><path fill="#000000" d="M467.21 570.08c-85.54500000000002 -0.615 -226 -0.43499999999999994 -230.435 0 -2.465 0.25 -3.27 0.55 -3.3600000000000003 3.11 -0.07 2 0 8 0 20.880000000000003a7.005 7.005 0 0 1 -4.795 -2.16c-7.58 -9 -1.815 -21 -7.215 -31.105a12.010000000000002 12.010000000000002 0 0 0 -9.87 -6.945 9.5 9.5 0 0 0 -7.91 5.175 19.05 19.05 0 0 0 -2.24 10.04c0.65 3.855 0.75 7.785 0.28500000000000003 11.665000000000001a6.775 6.775 0 0 1 -7.359999999999999 5.2700000000000005c-9.695 -1.08 -11 -11.03 -15.475000000000001 -16.57a9.65 9.65 0 0 0 -10.954999999999998 -3.0549999999999997 10.42 10.42 0 0 0 -4.59 11.080000000000002c1.125 8.225 7.1 13.045 4.234999999999999 20.65 -1.315 2.9 -4.395 2.705 -6.734999999999999 0.6950000000000001a80.7 80.7 0 0 1 -7.095000000000001 -9.805 9.44 9.44 0 0 0 -11.815 -3.135 9.399999999999999 9.399999999999999 0 0 0 -3.415 2.765c-2.605 4.9399999999999995 0.26 13.245000000000001 1.61 16.59a98.85 98.85 0 0 0 6.5 12.549999999999999c8.095 13.959999999999999 8.035 16 8.53 28.675a258.25 258.25 0 0 0 8.795 59.465 105.805 105.805 0 0 0 9.325 24.714999999999996c10.655 19.695 32.9 34.635 61.09 41.065a100.785 100.785 0 0 0 -6.13 21.110000000000003 2.6 2.6 0 0 0 1.85 3.17c4.42 1.7199999999999998 227.10999999999999 0.13 236.29500000000002 0.095 2.14 0 3.46 -0.21499999999999997 3.715 -4.285 0.4 -6.574999999999999 0.10500000000000001 -172 -0.22999999999999998 -219.14000000000001a2.6 2.6 0 0 0 -2.605 -2.565Zm-233.355 220.60500000000002c1.29 -6.095000000000001 3.15 -12.055 5.555 -17.8 21.43 3.685 43.449999999999996 1.565 63.785 -6.1450000000000005 3.105 -1.18 1.6500000000000001 -6.135000000000001 -1.5 -4.945 -41.559999999999995 15.87 -88.77499999999999 6.9350000000000005 -115.10999999999999 -21.709999999999997 26.165 -20.775000000000002 51.84 -43.815 75.725 -65.655 17.365 17.89 42.145 19.825 60 18.26a93.545 93.545 0 0 0 13.61 -3.29c41.54 -10.22 80.045 9.389999999999999 98.10000000000001 49.96000000000001a139.34 139.34 0 0 1 12.275 51.550000000000004c-169.705 0 -212.07999999999998 -0.22999999999999998 -212.44 -0.22499999999999998Zm-62.805 -188.5a15.209999999999999 15.209999999999999 0 0 0 1.96 -11.86c-0.8599999999999999 -4.115 -3.105 -7.614999999999999 -4.195 -11.530000000000001 -2.305 -8.24 3.67 -12.350000000000001 8.870000000000001 -1.29 8.33 17.75 23.875 16.19 28.17 6.875 3.465 -9.765 -1.1400000000000001 -13 1.62 -21.5 1.03 -2.565 3.045 -4.6450000000000005 5.61 -3.5 5.805 2.555 5.965 12.07 6.1 19a22.34 22.34 0 0 0 8.030000000000001 19c7.41 4.83 14.655000000000001 -0.275 21.715 -5.175a15.585 15.585 0 0 1 8.905 -2.8000000000000003 4.245 4.245 0 0 1 4.3149999999999995 4.14c0.1 4.82 -6.414999999999999 9.685 -12.2 21.935 -7.705 16.305 -4.09 38.755 8.76 54.800000000000004 -25.5 23.275000000000002 -48.84 44.31 -75.7 65.61a67.915 67.915 0 0 1 -11 -20.830000000000002 254.875 254.875 0 0 1 -10.940000000000001 -54.370000000000005c-1.53 -16.895 -0.34500000000000003 -17.3 -1.755 -26.93 -2.8549999999999995 -13.945 -15.905000000000001 -26.145 -16.655 -39.47 -0.125 -2.225 0.5 -4.265 2.74 -4.265a4.7749999999999995 4.7749999999999995 0 0 1 2.3400000000000003 0.68c3.16 1.58 4.635 5.735 6.625 8.53 3.4949999999999997 6.075 12.204999999999998 8.95 16.685000000000002 2.96v-0.01Zm167.105 81.5c0.5 -17 4.95 -56.165000000000006 34.5 -71.75a36.949999999999996 36.949999999999996 0 0 1 29.5 -2.215c19 6.715 25.955 28.799999999999997 31 49 0.605 2.415 27 115.79 30.82 132.22H451.5a147.25 147.25 0 0 0 -9.935 -47c-17.82 -46.544999999999995 -57.39 -69.57499999999999 -103.41 -60.26v0.005ZM464.62 771s-20.04 -86.19999999999999 -20.924999999999997 -90.075c-8.55 -37.395 -13.260000000000002 -58 -31.8 -71.9 -29 -19.195 -77.4 3.285 -78.955 75.785a53.449999999999996 53.449999999999996 0 0 1 -13.94 2.9499999999999997c-24.46 1 -42.87 -5.285 -54.735 -18.705000000000002a0.95 0.95 0 0 0 -0.095 -0.085l-0.095 -0.14a52.285000000000004 52.285000000000004 0 0 1 -11.405000000000001 -46.265 54.400000000000006 54.400000000000006 0 0 1 5.205 -10.89c4.465 -7.22 12.204999999999998 -15 8.455 -22.305 -3.3600000000000003 -6.545 -12.225 -6.1 -18.565 -2.5 -3.175 1.81 -5.93 4.265 -9.15 5.869999999999999a537.25 537.25 0 0 0 0 -17.5h226l0.005 195.76Z" stroke-width="1"></path><path fill="#000000" d="M860.145 914.1949999999999c-45.709999999999994 -27.755000000000003 -118.4 -27.765 -172.88 0a2.6 2.6 0 0 0 1.31 4.805c9.355 0.125 165.03 2.44 171.14000000000001 -0.18a2.67 2.67 0 0 0 1.61 -2.185 2.6 2.6 0 0 0 -1.18 -2.44Zm-11.5 -0.355h-148.5c48.355 -20.375 107.25 -20.375 148.52 0h-0.02Z" stroke-width="1"></path><path fill="#000000" d="M249.625 555.715a2.63 2.63 0 0 0 1.85 0.745 2.535 2.535 0 0 0 1.835 -0.795c0.555 -0.41500000000000004 0.28 0.03 17.244999999999997 -53.035a2.6100000000000003 2.6100000000000003 0 0 0 -3.17 -3.17c-15.469999999999999 3.96 -53.245 13.445 -53.595 13.53a2.575 2.575 0 0 0 -1.835 1.8199999999999998 2.6 2.6 0 0 0 0.65 2.505c9 9.065 36.84 38.22 37.019999999999996 38.4Zm-30.240000000000002 -38.815 44.805 -11.305 -13.879999999999999 43.404999999999994 -30.924999999999997 -32.1Z" stroke-width="1"></path><path fill="#000000" d="M312.785 506.335c37.15 25.154999999999998 34.22 23.42 35.35 23.42a2.605 2.605 0 0 0 2.6 -2.545c0.25 -6.175000000000001 3.6149999999999998 -55.175 3.65 -55.72a2.585 2.585 0 0 0 -3.31 -2.4699999999999998C293 489.315 293.55 488.8 293.055 490a2.725 2.725 0 0 0 -0.09 2.375c0.065 0.5800000000000001 0.535 0.8999999999999999 19.82 13.959999999999999ZM300.895 492l48.08 -16.8 -3.1 47.305 -44.980000000000004 -30.505Z" stroke-width="1"></path><path fill="#000000" d="M380.255 459.02500000000003c58.54 25.06 54.94 23.615 55.72 23.615a2.62 2.62 0 0 0 2.54 -3.215c-3.31 -15 -10.125 -49.6 -10.545 -52a2.54 2.54 0 0 0 -3.845 -1.58c-12.7 8.685 -42.24 27.549999999999997 -43.964999999999996 28.675a2.6 2.6 0 0 0 0.095 4.5Zm6.675 -2.7350000000000003 36.765 -24 8.82 43.5 -45.58500000000001 -19.5Z" stroke-width="1"></path><path fill="#000000" d="M490.335 383.02500000000003a2.435 2.435 0 0 0 -3.125 -2c-0.8400000000000001 0.05 -0.41000000000000003 -0.12 -37.04 31.939999999999998a2.6 2.6 0 0 0 0.05 3.66 123.435 123.435 0 0 0 17.384999999999998 6.949999999999999c33.125 12.755 30.55 11.850000000000001 31.18 11.850000000000001a2.7 2.7 0 0 0 2.415 -3.285l-10.865 -49.115Zm-4.125 5.26 8.934999999999999 40.39 -38.23 -14.745 29.295 -25.644999999999996Z" stroke-width="1"></path><path fill="#000000" d="M569.845 374.45500000000004a2.6 2.6 0 0 0 2.5 -1.96c0.33 -0.8799999999999999 0.5 3.305 -17.095 -57a2.59 2.59 0 0 0 -4.34 -1.105c-5.77 6.44 -34.4 36.64 -34.4 36.64a2.6 2.6 0 0 0 1.105 4.285c55.11 20.36 51.595000000000006 19.14 52.23 19.14Zm-46.92999999999999 -22.7 28.700000000000003 -30.57 14.254999999999999 46.464999999999996 -42.955 -15.895Z" stroke-width="1"></path><path fill="#000000" d="M381.5 627.64a19.384999999999998 19.384999999999998 0 0 0 -18.29 12.865 19.435 19.435 0 0 0 5.949999999999999 21.560000000000002 19.415 19.415 0 0 0 30.08 -7.125 19.419999999999998 19.419999999999998 0 0 0 1.3 -11.655 19.625 19.625 0 0 0 -19.04 -15.645Zm9 30.45c-1.895 1.545 -4.1499999999999995 2.58 -6.5600000000000005 3.005a14.295 14.295 0 0 1 -13.17 -4.635 14.27 14.27 0 0 1 -2.8899999999999997 -13.66 14.23 14.23 0 0 1 10.165 -9.57 14.23 14.23 0 0 1 7.215 0.09 14.219999999999999 14.219999999999999 0 0 1 10.169999999999998 10.785 14.239999999999998 14.239999999999998 0 0 1 -4.93 13.985000000000001Z" stroke-width="1"></path><path fill="#000000" d="M697.405 376.52500000000003a19.4 19.4 0 0 0 -28.485 21.715 19.415 19.415 0 0 0 16.115 14.28 19.4 19.4 0 0 0 12.370000000000001 -36Zm-7.635 30.87a14.26 14.26 0 1 1 -4.215 -28.21 14.26 14.26 0 0 1 4.215 28.21Z" stroke-width="1"></path><path fill="#000000" d="M929.62 218.69c0.095 -6.865 -5.215 -14.12 -12.3 -13.095 -8.78 1.28 -11.055 11.635 -16.425 16.605a7.415000000000001 7.415000000000001 0 0 1 -8.61 2c-5.9350000000000005 -5.17 -1.715 -13.120000000000001 -2.3400000000000003 -20.884999999999998 -0.66 -8.2 -8.32 -14.584999999999999 -15.229999999999999 -10.275 -5.725 4.44 -4.87 8.185 -10.96 20.2a15.5 15.5 0 0 1 -6.645 7.75 3.225 3.225 0 0 1 -2.6500000000000004 0.05c-3.3150000000000004 -1.5 -3.25 -6.65 -7.86 -16.195 -4.46 -9.22 -11.475 -11.76 -17.275 -3.225 -6.125 9.030000000000001 -3.6799999999999997 20.764999999999997 -1.135 31 1.3450000000000002 5.430000000000001 1.865 7.86 0.16 8.585 -5.4 1.7399999999999998 -17 -5.08 -26.835 2.4699999999999998a12.46 12.46 0 0 0 -2.9749999999999996 17.224999999999998c2.6950000000000003 2.49 5.9350000000000005 4.3 9.465 5.295a31.985 31.985 0 0 1 11.559999999999999 11.120000000000001c1.61 2.255 2.915 4.72 3.88 7.32 0.785 2.985 1.145 6.07 1.075 9.155 1.2850000000000001 32.365 -1.7399999999999998 90.33 -36.105000000000004 117.28999999999999 0.26 -16.655 -14.275 -32.599999999999994 -25.415 -35 3.25 -18.205 -3.76 -39 -22.365 -44.474999999999994a25.375 25.375 0 0 0 -18.71 1.3650000000000002 26.695 26.695 0 0 0 -29.92 -19 63 63 0 0 0 -38.23 24l-95.42999999999999 -60.24a33.504999999999995 33.504999999999995 0 0 1 10.145 -6.175000000000001c13.725000000000001 -5.2700000000000005 27.405 4.545 32.705 17.07 2.405 5.6899999999999995 0.78 7.4750000000000005 2.3899999999999997 9a2.595 2.595 0 0 0 4.36 -1.805c0.39 -19.735 -27.75 -45.405 -54 -20.875C500.5 241.19 499.73 240.655 499.15 240.5c-0.94 -0.78 -2.5 0.715 -152.295 95.295a245.68 245.68 0 0 0 -3.57 -20.419999999999998c23.22 -6.29 48.43 -27.5 63.22 -45.904999999999994a107.09 107.09 0 0 0 20.5 -40.43 132.535 132.535 0 0 0 2.8299999999999996 -53.54c-10.56 -63.89 -85.525 -67.315 -146.76500000000001 -83.35499999999999 -11.29 -2.96 -11.545000000000002 -5.185 -21.18 -10.120000000000001a13.59 13.59 0 0 0 -8.795 -1.9700000000000002c-14.075 3.85 -12.335 25.565 2.565 30.74 2.7550000000000003 0.95 4.675000000000001 1.7199999999999998 2.805 2.7350000000000003 -6.8500000000000005 3.7199999999999998 -18.55 2.5 -22.174999999999997 14.235a8.815 8.815 0 0 0 6.32 11.200000000000001c2.6750000000000003 0.42000000000000004 5.380000000000001 0.62 8.085 0.605 1.31 0.16 2.51 0.8 3.37 1.7999999999999998 1.6300000000000001 1.9500000000000002 -3 2.415 -9.629999999999999 8.885 -8.68 9.45 -2.14 22.205 7.445 19.615000000000002a34.4 34.4 0 0 0 9.379999999999999 -5.825c3 -1.9500000000000002 6.135000000000001 -2.5 7.43 0.8 0.8500000000000001 3.4200000000000004 0.605 7.025 -0.705 10.3 -1.6500000000000001 4.305 -1.985 9 -0.96 13.5a10.815 10.815 0 0 0 7 7.095000000000001c7.935 2.5 12.435 -6.92 15 -14.835 1.43 -4.44 2.9099999999999997 -9.035 7.1450000000000005 -10.860000000000001 12.145 -4.335 29.955 7.105 32.315 21.17a28.335 28.335 0 0 1 -8.365 24.75c-14.085 11.55 -53.36 9.805 -71.65 8.924999999999999a324.265 324.265 0 0 0 -82.16499999999999 5.21 216.325 216.325 0 0 0 -75.59 28.134999999999998A140.37 140.37 0 0 0 27.89 348.7a169.26 169.26 0 0 0 0.7000000000000001 71.95c6 24.24 22.675 54.705000000000005 51.5 67.5a69.55 69.55 0 0 0 22.5 5.709999999999999c0.08 4.2299999999999995 -0.265 4.84 -0.085 32.145 -10.29 5.300000000000001 -22.445 13.23 -26.225 27.56 -3.755 14.225000000000001 0.5750000000000001 33 16 39.775 3.05 1.34 5.540000000000001 -3.19 2.5 -4.525 -16.89 -7.365 -20.950000000000003 -35.94 -2.36 -50.415a73.525 73.525 0 0 1 10.149999999999999 -6.654999999999999c0.04 20.35 0.085 306.65 0.085 309.625a2.605 2.605 0 0 0 2.585 2.575h447.95000000000005a2.62 2.62 0 0 0 2.575 -2.585v-22.745c11.120000000000001 17 37 25.375 61.394999999999996 19.564999999999998 17.295 -4.13 30.32 -16.675 37.66 -36.29 0.6 -1.6 18.465 -55.5 24.439999999999998 -79.66a726.7 726.7 0 0 0 9.42 104.75 69.5 69.5 0 0 0 43.150000000000006 52.35 119.675 119.675 0 0 0 35.910000000000004 5.81 99.49 99.49 0 0 0 54.815 -12.86c7.45 -4.585 20.025 -14.315 21.32 -28.335h48.135000000000005a2.615 2.615 0 0 0 2.5700000000000003 -2.585s0.05499999999999999 -343.45500000000004 0.10500000000000001 -344.20000000000005c0.21499999999999997 -2.86 0.475 -6.414999999999999 -1.575 -8.055a45.67 45.67 0 0 0 -5.815 -3.895 178.945 178.945 0 0 0 39.385 -86.64999999999999c6.3149999999999995 -38.894999999999996 0.535 -77.47 -5.380000000000001 -110.57499999999999 -3 -16.84 -6.5 -30.415 -0.775 -46.83500000000001 2.525 -7.375 8.975 -14.065000000000001 9.094999999999999 -22.46Zm-13.215 71.86c7.205 38.83 11.725000000000001 77.325 3.365 116.5 -30.5 -13.665000000000001 -60.255 -27.75 -96.28500000000001 -45.575 1.7449999999999999 -7.935 3.07 -15.954999999999998 3.97 -24.03a224.14999999999998 224.14999999999998 0 0 0 2.2600000000000002 -43.040000000000006c0.065 -3.5 -0.295 -7 -1.065 -10.42a32.675 32.675 0 0 0 -3.795 -7.965 38.025000000000006 38.025000000000006 0 0 0 -14.31 -14.28c-2.9 -1.3050000000000002 -7.045 -2.07 -8.54 -4.805a7.135 7.135 0 0 1 0.75 -6.93c3.9450000000000003 -6.38 12.785 -4.8149999999999995 19.21 -3.6799999999999997 3.12 0.8450000000000001 6.435 0.55 9.355 -0.8250000000000001 4.975 -3 2.945 -9.350000000000001 1.655 -15.04 -2.205 -9.675 -4.705 -20.644999999999996 2.305 -28 4.1899999999999995 -3.92 8.6 8.59 10.465 14a13.834999999999999 13.834999999999999 0 0 0 6.284999999999999 9.17c8.195 3.9250000000000003 14.28 -6 16.5 -10.455000000000002 5.64 -11.235 6 -17.09 9.915000000000001 -18.245 2.7550000000000003 -0.8200000000000001 5.16 2.2600000000000002 5.92 4.595000000000001 0.67 4.21 0.55 8.505 -0.355 12.669999999999998 -0.54 7.14 2.165 14.785 9.42 15.780000000000001 8.05 1.1 13.049999999999999 -5.88 17.3 -12.53 1.77 -2.7750000000000004 4.21 -6.5649999999999995 7.5600000000000005 -6.805a6.04 6.04 0 0 1 5.385 4.205c2.945 6.8999999999999995 -3.33 13.94 -6.2250000000000005 20.165000000000003 -8.110000000000001 17.490000000000002 -5.145 33.44 -1.045 55.540000000000006ZM831 522.1500000000001c22.240000000000002 -8.870000000000001 37.25 -16.77 52.55 -32.935 2.3200000000000003 1.5 3.11 2.24 5.805 3.735 0 0 -0.14 345.37 -0.155 345.82500000000005h-45.405c-1.6900000000000002 -25.36 -19.315 -265.105 -19.415 -266.325 -1.3650000000000002 -16.77 -3.24 -32 -5.735 -46.565000000000005a73.44 73.44 0 0 0 12.355 -3.735Zm4.3149999999999995 330.95c-10.280000000000001 15.96 -32.905 26 -60.525000000000006 26.840000000000003a138.59 138.59 0 0 1 -34.754999999999995 -3.3150000000000004 63.35 63.35 0 0 1 -44.92 -44.88 250.765 250.765 0 0 1 -6.12 -38.370000000000005 888.995 888.995 0 0 1 -4.825 -94.5c0 -2.9 -4.5600000000000005 -3.62 -5.084999999999999 -0.635 -5.5 31.235 -16.43 61.89 -24.845000000000002 88.735a116.79 116.79 0 0 1 -9.625 24.209999999999997 46.615 46.615 0 0 1 -46.589999999999996 23.4 51.51 51.51 0 0 1 -32.165 -12.225 24.16 24.16 0 0 1 -9.475 -17.18c0 -1.225 -0.12 -129.39 0.2 -131.84 0.335 -1.1 26.215000000000003 -94.74000000000001 26.884999999999998 -97.14 32.17 -1.4649999999999999 198.805 -0.6 236 -1.085 1.88 22.91 19.275 264.91499999999996 19.315 265.765a20.735 20.735 0 0 1 -3.4499999999999997 12.219999999999999h-0.02Zm-285.63 -14.325000000000001c-273.075 0 -441.58000000000004 -0.16 -441.925 -0.16v-309.54c4.81 -2.285 9.86 -4.28 14.23 -5.9750000000000005 33.095 -12.835 53.16499999999999 -14.764999999999999 83.29 -20.81a648.0150000000001 648.0150000000001 0 0 0 120.66000000000001 -39.5c81.38999999999999 -35.27 168.715 -93.94999999999999 218.17000000000002 -167.60000000000002 3.0949999999999998 -4.85 6.58 -9.45 10.42 -13.735l96.31 60.82a31.435 31.435 0 0 0 -4.5 19.155c-29.925 2.9349999999999996 -51.71 37.58 -33.08 78.75a23.2 23.2 0 0 0 -19.825 10.32 32.885 32.885 0 0 0 -1.79 26.945c0.705 1.825 0.6 -2.3200000000000003 -30.169999999999998 36.075h-8.36a2.62 2.62 0 0 0 -2.575 2.585c-1.675 236.675 -0.9199999999999999 315.005 -0.8350000000000001 322.67h-0.02Zm-422.44 -454a2.375 2.375 0 0 0 -0.065 0.77c1.915 23.665 22.34 50.650000000000006 44.935 46.675000000000004a91 91 0 0 1 11.135 -1.945 11.959999999999999 11.959999999999999 0 0 1 11.585 3.4399999999999995 29.394999999999996 29.394999999999996 0 0 1 6.235 17.21c0.37 3.4749999999999996 0.49 6.97 0.365 10.465a9.535 9.535 0 0 1 -2.725 6.875c-2.605 2.0749999999999997 -4.305 -0.275 -6 -3.2350000000000003a57.765 57.765 0 0 1 -5 -10.88 2.605 2.605 0 0 0 -3.2350000000000003 -1.6800000000000002 2.575 2.575 0 0 0 -1.7399999999999998 3.065 30.36 30.36 0 0 1 0 14.825c-0.96 3.045 -3.305 6.550000000000001 -6.3149999999999995 5.185 -3.2800000000000002 -1.5 -3.97 -6.395 -5.055 -9.58a13.43 13.43 0 0 0 -7.69 -9.33 2.59 2.59 0 0 0 -3.2350000000000003 3.0949999999999998c1.3900000000000001 8.425 1.5 25.25 -4.54 27.89 -4.88 2.16 -5.68 -8.125 -9.07 -13.11 -4.035 -5.93 -9 -3.63 -14.815000000000001 -0.9750000000000001a254.51 254.51 0 0 0 -27.549999999999997 15.295000000000002 66.36999999999999 66.36999999999999 0 0 1 -40.625 -17.29c-27.415 -24.689999999999998 -39.5 -66.96 -32.445 -113.17500000000001 33.29 5.905 63.46 11.65 96.125 16.27a53.265 53.265 0 0 0 -0.255 10.135000000000002l-0.02 0.005Zm334.365 -9.33a623.87 623.87 0 0 1 -201.74 106.8C215.20499999999998 496.63 205 496.765 169.5 503.895a290.52 290.52 0 0 0 -61.72 19.605c0 -22.065 0.04 -28.675 0.07 -30.65a188.98 188.98 0 0 1 30.790000000000003 -16.415c2.5 -0.785 2.585 -0.8150000000000001 4.074999999999999 1.315 1.1500000000000001 1.6500000000000001 1.965 3.5 2.395 5.465a18.1 18.1 0 0 0 4.415 7.845c4.455 3.825 11.765 2.21 14.97 -6.825a50.7 50.7 0 0 0 1.885 -16.965c0.65 1.715 1.21 3.46 1.6800000000000002 5.234999999999999 5.36 13.695 18.5 9.92 20.5 -4.295 2 3.0949999999999998 4.205 6.175000000000001 8.245000000000001 6.165000000000001 7.039999999999999 0 10.735 -9.45 9.875 -16.68a48.040000000000006 48.040000000000006 0 0 0 -5.23 -23.805c6.7 -4.655 291.12 -183.70499999999998 297.16999999999996 -187.765l51.625 32.599999999999994c-16.939999999999998 19.775 -26.575000000000003 46.685 -88.615 96.715l-0.02 0.005Zm-122.04 -64.4a2.63 2.63 0 0 0 -1.7999999999999998 3.1550000000000002 210.85000000000002 210.85000000000002 0 0 1 4.225 24.67L198.11 429.73a62.65 62.65 0 0 0 -1.45 -1.355c-6.22 -4.97 -14.764999999999999 -3.5 -22.365 -1.83a16.19 16.19 0 0 1 -6 0.8 23.15 23.15 0 0 1 -10.629999999999999 -2.3200000000000003c-15.105 -6.790000000000001 -28.64 -29.28 -24.71 -51.935a2.905 2.905 0 0 0 -0.925 -2.725 2.58 2.58 0 0 0 2.555 -2 45.45 45.45 0 0 1 11.22 -24.5c2.22 -2.5 -1.45 -6.1 -3.7 -3.5999999999999996a50.37 50.37 0 0 0 -12.524999999999999 26.85 2.64 2.64 0 0 0 1.04 2.785c-2.58 -0.35000000000000003 -10.674999999999999 -1.47 -98.29 -16.924999999999997C48 267.64500000000004 126.555 234.37 212.875 229.785c34 -1.795 48.834999999999994 3.58 85.19500000000001 -0.81a64.4 64.4 0 0 0 19.650000000000002 -5.525 29.834999999999997 29.834999999999997 0 0 0 16.080000000000002 -26.16c30.259999999999998 -6.13 61.04 -12.5 91.63 -16a129.5 129.5 0 0 1 -8.125 60.42 124.765 124.765 0 0 1 -35.805 45.93c-11.5 9.43 -25.5 19.59 -41.92999999999999 23.405ZM757.5 377.76000000000005a2.575 2.575 0 0 0 0.42500000000000004 2.1149999999999998 4.335 4.335 0 0 0 3.31 1.09c6.73 0.365 25.43 16.195 21.545 33.935 -14.885 8.4 -35.285000000000004 7.960000000000001 -53.585 7.7a168.14499999999998 168.14499999999998 0 0 0 -65.09 9.245 172.54999999999998 172.54999999999998 0 0 0 -68.17999999999999 42.08 27.57 27.57 0 0 1 -0.05499999999999999 -15.93 15.85 15.85 0 0 1 8.885 -10.84 18.11 18.11 0 0 1 12.110000000000001 -1.3900000000000001 2.625 2.625 0 0 0 2.915 -3.775 66.35 66.35 0 0 1 -7.545 -40.839999999999996c2.71 -16.755 16.63 -34.63 37.08 -34.76a2.6 2.6 0 0 0 2.5 -3.25c-3.81 -15.525 11.040000000000001 -28.64 17.6 -33.56 26.34 -19.744999999999997 47.29 -8.035 47.815000000000005 7.74a2.6100000000000003 2.6100000000000003 0 0 0 4.355 1.855 21.07 21.07 0 0 1 22.625 -0.45999999999999996 29.169999999999998 29.169999999999998 0 0 1 13.86 22.294999999999998 53.8 53.8 0 0 1 -0.5700000000000001 16.75Zm64.5 -10.91c37.64 18.57 68.34 33.08 96.5 45.614999999999995a166.64999999999998 166.64999999999998 0 0 1 -43 77.575 131.2 131.2 0 0 1 -44.155 26.435c-5.26 2.21 -10.75 3.845 -16.365000000000002 4.865a2.6 2.6 0 0 0 -1.805 3.12c2.5 13.959999999999999 4.385 28.849999999999998 5.795 45.5 -9.389999999999999 0.1 -228.17499999999998 0.75 -234 0.78 0 0 1.395 -4.97 1.8900000000000001 -6.9350000000000005a2.58 2.58 0 0 0 -1.81 -3.1950000000000003 2.6100000000000003 2.6100000000000003 0 0 0 -3.19 1.81c-1.42 4.465 -21.92 72.74 -25.5 84.2 0 -20.924999999999997 0.10999999999999999 -112.89 0 -118.58000000000001 35.205 -44.04 57.61 -74.895 112.715 -92.37 45.945 -14.575 66.53 -3.5 100.22500000000001 -10.27 27.99 -5.605 45.519999999999996 -33.775 52.699999999999996 -58.550000000000004ZM287.58 171.035c-3.935 6.3100000000000005 -5.0649999999999995 18.174999999999997 -10.735 19.805a4.125 4.125 0 0 1 -3.81 -1.785 12.16 12.16 0 0 1 -0.5 -10.860000000000001c1.4000000000000001 -3.93 1.98 -8.105 1.7199999999999998 -12.270000000000001a9.5 9.5 0 0 0 -6.755 -8.53 12.95 12.95 0 0 0 -10.18 3.125c-2.475 1.85 -5.9350000000000005 5.5 -9.09 4.3149999999999995 -2.5 -0.94 -3 -4.5 -2.565 -6.595 0.8250000000000001 -3.95 4.96 -6.870000000000001 8.375 -9.045 2.72 -1.7249999999999999 6.109999999999999 -3.875 5.5 -7.84a9.32 9.32 0 0 0 -8.7 -6.9399999999999995c-4.415 -0.47 -10.084999999999999 0.555 -9.755 -4.2 0.335 -4.85 5.074999999999999 -7.1499999999999995 7.87 -8.09 7.1899999999999995 -2.415 11.259999999999998 -2.225 14.935 -6.635 2.6750000000000003 -4.475 -1.685 -7.675 -6.61 -9.545 -10.325 -3.91 -11.135 -17.5 -4.12 -20.555 2.7700000000000005 -1.21 5.5 0.6 14.125 5.715 26.5 15.66 108.855 15.825 142.215 52.335a63.425000000000004 63.425000000000004 0 0 1 15.129999999999999 32.5c-30.585 3.5 -61.235 9.755 -90.88499999999999 15.785 -2.515 -22.43 -35.745 -37.410000000000004 -46.165000000000006 -20.689999999999998Z" stroke-width="1"></path><path fill="#000000" d="M179.82 180.18a113.11999999999999 113.11999999999999 0 0 0 12.285 -4.43 46.349999999999994 46.349999999999994 0 0 0 15.575000000000001 -7.890000000000001 30.89 30.89 0 0 0 9.93 -11 7.5600000000000005 7.5600000000000005 0 0 0 -4.734999999999999 -11.200000000000001 10.205 10.205 0 0 0 -9.59 3.54 7.66 7.66 0 0 0 -8.165 -4.65 11.455 11.455 0 0 0 -9 8.275c-5.0649999999999995 -3.825 -11.235 1.5 -11.695 7.79a37.815 37.815 0 0 0 3.2800000000000002 18.240000000000002 2.3200000000000003 2.3200000000000003 0 0 0 2.1149999999999998 1.3250000000000002Zm0.775 -22c1.59 -2.4299999999999997 2.745 -1.58 4.305 0.8500000000000001a2.615 2.615 0 0 0 4.82 -0.45999999999999996l0.22499999999999998 -0.8c0.885 -3.23 1.895 -6.89 5.084999999999999 -7.91 3.19 -1.02 4.1049999999999995 2.12 4.47 5.435a2.6 2.6 0 0 0 4.84 1.2349999999999999 13.100000000000001 13.100000000000001 0 0 1 4.82 -5.45c1.42 -0.66 3.57 -0.665 4.1499999999999995 0.8150000000000001 1.05 2.6900000000000004 -3.18 7.4 -7.5 10.905000000000001 -9.115 7.405 -14.115 7 -24.5 11.41A32.5 32.5 0 0 1 179.5 163.5c-0.195 -1.85 0.19 -3.715 1.095 -5.34v0.02Z" stroke-width="1"></path><path fill="#000000" d="M890.5450000000001 260.05c-2.3400000000000003 -1.6400000000000001 -3.415 0.78 -19.67 7.65a5.995 5.995 0 0 1 -6.3100000000000005 -0.33 18.185 18.185 0 0 1 -4.595000000000001 -5.779999999999999 35.475 35.475 0 0 0 -22.595 -17.875 2.6 2.6 0 0 0 -2.725 0.925 2.6500000000000004 2.6500000000000004 0 0 0 -0.51 1.9100000000000001 2.6 2.6 0 0 0 1.895 2.165 30.005000000000003 30.005000000000003 0 0 1 17.71 12.545c3.1950000000000003 4.92 4.895 9.695 10.969999999999999 11.924999999999999 5.375 1.535 7.65 -0.5 25.674999999999997 -8.834999999999999a2.425 2.425 0 0 0 0.155 -4.3Z" stroke-width="1"></path><path fill="#000000" d="M907.785 364.6a91.15 91.15 0 0 1 -1.07 25.465c-0.605 3.25 4.385 4.585 5 1.2650000000000001a96.35 96.35 0 0 0 1.23 -26.855000000000004c-0.31 -3.29 -5.48 -3.2350000000000003 -5.16 0.125Z" stroke-width="1"></path><path fill="#000000" d="m802.6049999999999 743.13 1.04 20.384999999999998c0.17 3.35 5.335 3.27 5.164999999999999 -0.065l-1.04 -20.384999999999998c-0.165 -3.31 -5.324999999999999 -3.3150000000000004 -5.164999999999999 0.065Z" stroke-width="1"></path><path fill="#000000" d="M583.4449999999999 711.5c-1.5 -3 -6 -0.45499999999999996 -4.5 2.5300000000000002l8.555 17.34c1.5 3 6 0.5 4.5 -2.5300000000000002l-8.555 -17.34Z" stroke-width="1"></path><path fill="#000000" d="M799.42 628.81c-18.695 -11.185 -37.45 -21.549999999999997 -52.809999999999995 -35.37 -2.4699999999999998 -2.22 -6.105 1.45 -3.605 3.7a290.075 290.075 0 0 0 53.81 36.13 2.52 2.52 0 0 0 2.785 -0.20500000000000002 2.58 2.58 0 0 0 -0.18 -4.255Z" stroke-width="1"></path><path fill="#000000" d="M175.72500000000002 705.235a2.575 2.575 0 0 0 -1.7349999999999999 3.075c1.18 4.545 2.8149999999999995 8.965 4.87 13.19 1.45 3.035 5.9399999999999995 0.5 4.5 -2.5a77.63 77.63 0 0 1 -4.405 -12.04 2.545 2.545 0 0 0 -2.225 -1.83 2.455 2.455 0 0 0 -1.0050000000000001 0.10500000000000001Z" stroke-width="1"></path><path fill="#000000" d="M172.53 624.63c0.645 3.305 5.64 2 5 -1.28l-2.22 -11.41c-0.64 -3.29 -5.645 -2 -5 1.275l2.22 11.415Z" stroke-width="1"></path><path fill="#000000" d="M205.855 612.105c0.71 3.2800000000000002 5.699999999999999 1.96 5 -1.3050000000000002l-2.3449999999999998 -10.84c-0.6950000000000001 -3.255 -5.709999999999999 -2 -5 1.3l2.3449999999999998 10.845Z" stroke-width="1"></path><path fill="#000000" d="M292.14 136.35999999999999a13.385 13.385 0 0 0 -2.885 -7.824999999999999c-4 -6.8500000000000005 -8.18 -13.925 -6.3549999999999995 -22 0.73 -3.25 -4.25 -4.6000000000000005 -5 -1.32a34.35 34.35 0 0 0 6.1 24.75c1.1400000000000001 1.55 2.1 3.23 2.8449999999999998 5 0.5 1.7000000000000002 -0.905 2 -2.5 3.19a28 28 0 0 0 -8.129999999999999 9 2.595 2.595 0 0 0 3.53 3.5 2.56 2.56 0 0 0 0.935 -0.8899999999999999c2 -3.3600000000000003 4.75 -6.21 8.035 -8.325a6.654999999999999 6.654999999999999 0 0 0 3.4250000000000003 -5.08Z" stroke-width="1"></path><path fill="#000000" d="M40.21 378.8c0.63 -3.27 -4.365 -4.575 -5 -1.275a43.56 43.56 0 0 0 0.725 20.375 2.595 2.595 0 0 0 5 -1.37 40.410000000000004 40.410000000000004 0 0 1 -0.725 -17.73Z" stroke-width="1"></path><path fill="#000000" d="M403.59000000000003 239.32a52.370000000000005 52.370000000000005 0 0 0 6 -19.975c0.305 -3.3550000000000004 -4.8549999999999995 -3.4250000000000003 -5.16 -0.11499999999999999a46.075 46.075 0 0 1 -5.305 17.525c-1.625 2.96 2.875 5.510000000000001 4.465 2.565Z" stroke-width="1"></path><path fill="#000000" d="M138.67000000000002 697.5400000000001a2.585 2.585 0 0 0 -4.09 -1.3650000000000002 2.55 2.55 0 0 0 -0.98 1.7199999999999998 2.605 2.605 0 0 0 0.07 1.01 311.21500000000003 311.21500000000003 0 0 0 15.9 46.275000000000006 2.58 2.58 0 0 0 3.54 0.9199999999999999c3.81 -2.265 -1.01 -1.9900000000000002 -14.44 -48.56Z" stroke-width="1"></path><path fill="#000000" d="M124.80000000000001 691.0699999999999c-0.615 -3.3000000000000003 -5.620000000000001 -2 -5 1.27a182.935 182.935 0 0 0 23.2 61.83 2.545 2.545 0 0 0 2.19 1.2149999999999999 2.6100000000000003 2.6100000000000003 0 0 0 2.225 -1.2650000000000001 2.6 2.6 0 0 0 0.045 -2.56 197.555 197.555 0 0 1 -22.66 -60.49Z" stroke-width="1"></path><path fill="#000000" d="M425.5 106.03999999999999a2.565 2.565 0 0 0 3.4200000000000004 -0.8999999999999999 750.75 750.75 0 0 0 12.66 -21.37 2.585 2.585 0 0 0 -4.465 -2.605l-12.66 21.375a2.58 2.58 0 0 0 1.045 3.5Z" stroke-width="1"></path><path fill="#000000" d="m438.5 118.87 29.695 -23.525c2.62 -2.07 -0.9299999999999999 -5.815 -3.55 -3.75l-29.689999999999998 23.5c-2.64 2.1 0.9099999999999999 5.845000000000001 3.545 3.775Z" stroke-width="1"></path><path fill="#000000" d="M447.43 132.68c0.645 0 -1.44 0.71 27.029999999999998 -9.93 3.085 -1.155 1.695 -6.13 -1.5 -4.95l-26.12 9.76a2.6500000000000004 2.6500000000000004 0 0 0 0.59 5.12Z" stroke-width="1"></path><path fill="#000000" d="M949.59 392.90999999999997a86.745 86.745 0 0 1 -9.215 52.5c-1.555 3 2.945 5.5 4.5 2.56a92.72999999999999 92.72999999999999 0 0 0 9.74 -56.25c-0.47 -3.335 -5.475 -2.105 -5.0249999999999995 1.19Z" stroke-width="1"></path><path fill="#000000" d="M973.465 390.5c-0.705 -3.2750000000000004 -5.695 -1.965 -5 1.3a88.35000000000001 88.35000000000001 0 0 1 -12.059999999999999 66.395c-1.7999999999999998 2.8249999999999997 2.6350000000000002 5.470000000000001 4.44 2.6500000000000004a93.16000000000001 93.16000000000001 0 0 0 12.620000000000001 -70.35Z" stroke-width="1"></path></g></svg>