<svg width="40" height="40" viewBox="0 0 40 40" fill="none" xmlns="http://www.w3.org/2000/svg">
<path d="M11.6863 5.79781L1.3066 23.7694C-2.40222 30.1665 2.22757 38.1815 9.62031 38.1815H30.3798C37.7725 38.1815 42.4022 30.1665 38.6934 23.7694L28.3138 5.79781C24.6298 -0.599269 15.3951 -0.599269 11.6863 5.79781Z" fill="#6059F4"/>
<path fill-rule="evenodd" clip-rule="evenodd" d="M6.883 25.2881C5.48917 27.7026 6.31057 30.7896 8.72447 32.184C11.139 33.5772 14.2011 32.7558 15.6198 30.3413L24.929 14.2367C26.3228 11.8222 25.5014 8.73527 23.0869 7.34207C20.673 5.94759 17.5861 6.769 16.1922 9.18353L6.883 25.2881ZM33.8396 27.602C33.8396 30.7093 31.3213 33.2283 28.2146 33.2283C25.1073 33.2283 22.589 30.7093 22.589 27.602C22.589 24.496 25.1073 21.977 28.2146 21.977C31.3213 21.977 33.8396 24.496 33.8396 27.602Z" fill="white"/>
</svg>
